<?xml version="1.0" encoding="UTF-8"?>
<!DOCTYPE svg PUBLIC "-//W3C//DTD SVG 1.1//EN" "http://www.w3.org/Graphics/SVG/1.1/DTD/svg11.dtd">
<!-- Creator: CorelDRAW X7 -->
<svg xmlns="http://www.w3.org/2000/svg" xml:space="preserve" width="1.44in" height="1.44in" version="1.1" style="shape-rendering:geometricPrecision; text-rendering:geometricPrecision; image-rendering:optimizeQuality; fill-rule:evenodd; clip-rule:evenodd"
viewBox="0 0 1440 1440"
 xmlns:xlink="http://www.w3.org/1999/xlink">
 <defs>
  <style type="text/css">
   <![CDATA[
    .fil0 {fill:#D7CC75}
   ]]>
  </style>
 </defs>
 <g id="Layer_x0020_1">
  <metadata id="CorelCorpID_0Corel-Layer"/>
  <path class="fil0" d="M608 724c-1,-150 -17,-278 75,-368 43,-42 89,-63 152,-70 54,-6 154,0 206,12l0 176c-76,13 -141,-16 -188,42 -31,41 -19,145 -21,208l200 1 -31 209 -168 1 0 504c56,6 212,-64 252,-89 83,-52 128,-93 187,-159 117,-133 182,-336 166,-526 -31,-365 -331,-665 -718,-665 -378,0 -695,301 -718,666 -15,228 60,393 165,524 48,59 112,114 187,159 55,33 178,87 254,91l-1 -506 -183 -2 0 -207 184 -1z"/>
 </g>
</svg>
