<?xml version="1.0" encoding="UTF-8"?>
<!DOCTYPE svg PUBLIC "-//W3C//DTD SVG 1.1//EN" "http://www.w3.org/Graphics/SVG/1.1/DTD/svg11.dtd">
<!-- Creator: CorelDRAW X7 -->
<svg xmlns="http://www.w3.org/2000/svg" xml:space="preserve" width="1.44in" height="1.44in" version="1.1" style="shape-rendering:geometricPrecision; text-rendering:geometricPrecision; image-rendering:optimizeQuality; fill-rule:evenodd; clip-rule:evenodd"
viewBox="0 0 1440 1440"
 xmlns:xlink="http://www.w3.org/1999/xlink">
 <defs>
  <style type="text/css">
   <![CDATA[
    .fil0 {fill:#D7CC75}
   ]]>
  </style>
 </defs>
 <g id="Layer_x0020_1">
  <metadata id="CorelCorpID_0Corel-Layer"/>
  <path class="fil0" d="M324 586c10,-38 46,-97 70,-127l35 -39c30,-27 32,-30 71,-56 14,-9 27,-16 42,-24 7,-3 17,-8 23,-10 118,-47 247,-47 361,9 15,7 29,15 43,24l39 28 214 -210c-9,-11 -79,-60 -93,-68 -24,-14 -44,-27 -70,-39 -60,-28 -138,-55 -205,-64 -16,-2 -33,-4 -49,-6 -16,-2 -36,-1 -51,-3 -18,-3 -35,1 -52,1 -51,0 -138,17 -185,31 -44,13 -94,34 -134,56 -36,18 -84,50 -114,75 -66,54 -106,99 -153,169l-30 51c-4,6 -9,10 -9,18l-4 7c-32,61 -59,151 -66,219 -2,14 -4,30 -5,44l-2 48c0,23 4,69 6,91 8,67 28,133 54,194 5,10 11,26 17,33 5,18 47,84 60,100 8,11 16,20 24,30 14,19 22,26 37,42l70 65c50,45 145,94 205,117 58,21 160,46 224,46 19,0 33,3 53,2 32,-2 66,-4 98,-9 58,-9 117,-24 170,-46 36,-16 74,-34 107,-55l92 -71c17,-11 66,-67 82,-89 72,-96 114,-206 132,-324 2,-18 8,-58 7,-77 0,-12 2,-17 2,-27 0,-9 0,-19 0,-28 0,-26 -10,-111 -18,-126l-685 0 0 279 393 0c0,16 -15,54 -21,69 -22,49 -57,95 -101,127 -9,6 -18,13 -27,19 -6,4 -13,7 -20,11 -18,11 -47,22 -67,28 -39,12 -90,22 -135,22 -10,0 -21,0 -32,0 -93,0 -187,-34 -258,-88 -58,-45 -94,-92 -127,-157l-18 -45c-5,-22 -10,-29 -15,-61 -11,-57 -8,-119 6,-175 2,-5 3,-10 4,-15 2,-4 4,-12 5,-16z"/>
 </g>
</svg>
