<?xml version="1.0" encoding="UTF-8"?>
<!DOCTYPE svg PUBLIC "-//W3C//DTD SVG 1.1//EN" "http://www.w3.org/Graphics/SVG/1.1/DTD/svg11.dtd">
<!-- Creator: CorelDRAW X7 -->
<svg xmlns="http://www.w3.org/2000/svg" xml:space="preserve" width="1.44in" height="1.44in" version="1.1" style="shape-rendering:geometricPrecision; text-rendering:geometricPrecision; image-rendering:optimizeQuality; fill-rule:evenodd; clip-rule:evenodd"
viewBox="0 0 1440 1440"
 xmlns:xlink="http://www.w3.org/1999/xlink">
 <defs>
  <style type="text/css">
   <![CDATA[
    .fil0 {fill:#D7CC75}
   ]]>
  </style>
 </defs>
 <g id="Layer_x0020_1">
  <metadata id="CorelCorpID_0Corel-Layer"/>
  <g id="_2219706339984">
   <path class="fil0" d="M397 12c-215,20 -347,131 -380,332 -24,152 -19,542 -5,703 18,211 136,344 333,376 151,24 541,19 702,5 211,-18 344,-136 376,-333 24,-151 19,-541 5,-702 -18,-212 -136,-344 -333,-376 -147,-24 -545,-20 -698,-5zm106 123c-199,5 -325,43 -358,227 -25,137 -14,427 -10,576 5,199 43,324 227,357 138,25 427,14 576,10 199,-5 324,-44 357,-227 25,-137 14,-428 10,-576 -5,-199 -43,-324 -227,-357 -137,-25 -427,-14 -575,-10z"/>
   <path class="fil0" d="M693 355c-195,16 -353,176 -339,389 13,196 180,357 394,342 196,-14 357,-185 337,-401 -17,-189 -184,-348 -392,-330zm-27 135c-325,90 -176,539 114,461 106,-29 210,-146 171,-291 -29,-106 -145,-209 -285,-170z"/>
   <path class="fil0" d="M1066 262c-103,51 -31,198 73,153 93,-40 36,-206 -73,-153z"/>
  </g>
 </g>
</svg>
