<?xml version="1.0" encoding="UTF-8"?>
<!DOCTYPE svg PUBLIC "-//W3C//DTD SVG 1.1//EN" "http://www.w3.org/Graphics/SVG/1.1/DTD/svg11.dtd">
<!-- Creator: CorelDRAW X7 -->
<svg xmlns="http://www.w3.org/2000/svg" xml:space="preserve" width="0.818in" height="1.206in" version="1.1" style="shape-rendering:geometricPrecision; text-rendering:geometricPrecision; image-rendering:optimizeQuality; fill-rule:evenodd; clip-rule:evenodd"
viewBox="0 0 818 1206"
 xmlns:xlink="http://www.w3.org/1999/xlink">
 <defs>
  <style type="text/css">
   <![CDATA[
    .fil0 {fill:#D7CC75}
   ]]>
  </style>
 </defs>
 <g id="Layer_x0020_1">
  <metadata id="CorelCorpID_0Corel-Layer"/>
  <path class="fil0" d="M0 113c70,0 131,-1 200,2 95,5 170,22 219,105 3,5 3,7 5,12l-351 0c-6,9 -71,106 -73,113l440 0c0,6 -1,23 -2,30 -9,57 -48,107 -97,136 -88,53 -191,47 -303,47l0 101c0,8 7,14 11,19l40 51c19,23 36,45 55,68 10,12 17,22 27,34 9,11 18,22 27,34 57,74 129,163 190,238l53 68c10,12 19,22 28,35l200 0 -56 -70c-19,-24 -37,-46 -57,-70l-168 -210c-19,-24 -37,-47 -57,-70l-84 -106c-5,-6 -10,-12 -14,-18 -5,-5 -11,-12 -15,-18 27,0 53,-4 76,-8 10,-2 24,-5 35,-8 112,-31 215,-101 258,-213 6,-17 17,-48 17,-70l137 0c8,0 36,-49 40,-55l37 -58 -218 0c-1,-29 -18,-70 -34,-93 -5,-9 -12,-17 -17,-26l196 0c13,-24 61,-90 73,-113l-745 0c-6,8 -71,106 -73,113z"/>
 </g>
</svg>
