<?xml version="1.0" encoding="UTF-8"?>
<!DOCTYPE svg PUBLIC "-//W3C//DTD SVG 1.1//EN" "http://www.w3.org/Graphics/SVG/1.1/DTD/svg11.dtd">
<!-- Creator: CorelDRAW X7 -->
<svg xmlns="http://www.w3.org/2000/svg" xml:space="preserve" width="1.44in" height="1.44in" version="1.1" style="shape-rendering:geometricPrecision; text-rendering:geometricPrecision; image-rendering:optimizeQuality; fill-rule:evenodd; clip-rule:evenodd"
viewBox="0 0 1440 1440"
 xmlns:xlink="http://www.w3.org/1999/xlink">
 <defs>
  <style type="text/css">
   <![CDATA[
    .str0 {stroke:#D7CC75;stroke-width:3}
    .fil0 {fill:#D7CC75}
   ]]>
  </style>
 </defs>
 <g id="Layer_x0020_1">
  <metadata id="CorelCorpID_0Corel-Layer"/>
  <path class="fil0 str0" d="M888 1358c27,-51 108,-127 134,-272 54,5 159,33 203,55 -53,90 -221,190 -337,217zm-672 -217c42,-21 151,-50 202,-55 9,45 35,108 55,148 35,73 62,91 80,124 -221,-51 -327,-210 -337,-217zm534 234l0 -314c67,-4 148,7 215,14 -25,118 -116,281 -215,300zm-274 -300c67,-7 148,-18 215,-14l0 314c-102,-20 -185,-182 -215,-300zm506 -58l-229 -18c-7,-26 -6,-219 -1,-253l258 0c12,80 -22,195 -28,271zm-551 -272l258 1c5,34 6,227 -1,255l-229 15c-6,-75 -41,-190 -28,-271zm835 346c-60,-22 -158,-57 -226,-62 7,-46 16,-88 22,-135 5,-49 5,-100 11,-148l306 0c10,99 -65,294 -113,345zm-1204 -346l306 1c5,46 5,95 11,143 5,49 15,93 22,140 -68,5 -167,41 -226,62 -48,-51 -123,-247 -113,-346zm688 -308l232 -15c10,91 27,164 30,264l-262 0 0 -249zm-291 -16l230 18 2 247 -263 0c4,-100 21,-173 31,-265zm580 -12c84,-7 156,-42 228,-62 31,62 37,47 75,148 23,60 33,122 39,191l-310 0c-1,-105 -19,-181 -32,-277zm-669 276l-310 1c8,-96 29,-187 73,-269 13,-25 31,-49 41,-70 72,20 144,55 227,62 -14,96 -31,175 -31,276zm379 -621c61,12 113,76 139,120 23,38 70,130 75,179 -67,7 -147,17 -213,14l-1 -313zm-271 299c4,-48 52,-142 74,-179 27,-45 78,-108 139,-120l0 313c-66,3 -147,-7 -213,-14zm545 -11c-15,-68 -55,-157 -94,-214 -13,-20 -31,-37 -42,-57 141,31 286,137 340,219 -65,13 -129,46 -204,52zm-809 -52c54,-82 198,-188 339,-219 -24,46 -102,114 -135,271 -75,-6 -140,-39 -204,-52zm414 -293c-533,75 -780,649 -530,1074 139,238 413,394 718,352 615,-85 850,-855 361,-1270 -123,-105 -332,-187 -549,-156z"/>
 </g>
</svg>
