<?xml version="1.0" encoding="UTF-8"?>
<!DOCTYPE svg PUBLIC "-//W3C//DTD SVG 1.1//EN" "http://www.w3.org/Graphics/SVG/1.1/DTD/svg11.dtd">
<!-- Creator: CorelDRAW X7 -->
<svg xmlns="http://www.w3.org/2000/svg" xml:space="preserve" width="1.44in" height="1.44in" version="1.1" style="shape-rendering:geometricPrecision; text-rendering:geometricPrecision; image-rendering:optimizeQuality; fill-rule:evenodd; clip-rule:evenodd"
viewBox="0 0 1440 1440"
 xmlns:xlink="http://www.w3.org/1999/xlink">
 <defs>
  <style type="text/css">
   <![CDATA[
    .fil0 {fill:none}
    .fil1 {fill:#D7CC75}
   ]]>
  </style>
 </defs>
 <g id="Layer_x0020_1">
  <metadata id="CorelCorpID_0Corel-Layer"/>
  <g id="_2219403914384">
   <path class="fil0" d="M146 1294c4,-56 74,-194 74,-238 0,-13 -40,-82 -50,-105 -123,-283 2,-614 264,-758 247,-136 536,-72 711,101 320,317 181,865 -242,995 -92,29 -184,35 -284,19 -125,-20 -213,-86 -231,-88 -31,-3 -191,68 -242,74z"/>
   <path class="fil0" d="M1 1439c37,10 235,-67 288,-84 88,-30 64,-16 140,20 298,136 665,31 839,-192 38,-48 46,-55 80,-114 109,-189 121,-425 37,-627 -164,-398 -662,-584 -1069,-317 -265,175 -399,558 -252,881 32,72 50,59 23,140 -18,54 -96,256 -86,293zm1035 -561l-217 -35c-24,37 -27,57 -36,67 -105,-36 -199,-128 -234,-235 70,-64 83,53 31,-253 -67,-20 -115,-7 -152,33 -102,110 22,537 396,601 68,12 131,18 177,-23 40,-35 57,-87 35,-155z"/>
  </g>
  <path class="fil1" d="M1 1439c37,10 235,-67 288,-84 88,-30 64,-16 140,20 298,136 665,31 839,-192 38,-48 46,-55 80,-114 109,-189 121,-425 37,-627 -164,-398 -662,-584 -1069,-317 -265,175 -399,558 -252,881 32,72 50,59 23,140 -18,54 -96,256 -86,293zm387 -219c-31,-3 -191,68 -242,74 4,-56 74,-194 74,-238 0,-13 -40,-82 -50,-105 -123,-283 2,-614 264,-758 247,-136 536,-72 711,101 320,317 181,865 -242,995 -92,29 -184,35 -284,19 -125,-20 -213,-86 -231,-88z"/>
  <path class="fil1" d="M428 455c-102,110 22,537 396,601 68,12 131,18 177,-23 40,-35 57,-87 35,-155l-217 -35c-24,37 -27,57 -36,67 -105,-36 -199,-128 -234,-235 70,-64 83,53 31,-253 -67,-20 -115,-7 -152,33z"/>
 </g>
</svg>
