<?xml version="1.0" encoding="UTF-8"?>
<!DOCTYPE svg PUBLIC "-//W3C//DTD SVG 1.1//EN" "http://www.w3.org/Graphics/SVG/1.1/DTD/svg11.dtd">
<!-- Creator: CorelDRAW X7 -->
<svg xmlns="http://www.w3.org/2000/svg" xml:space="preserve" width="1.44in" height="1.01699in" version="1.1" style="shape-rendering:geometricPrecision; text-rendering:geometricPrecision; image-rendering:optimizeQuality; fill-rule:evenodd; clip-rule:evenodd"
viewBox="0 0 1440 1017"
 xmlns:xlink="http://www.w3.org/1999/xlink">
 <defs>
  <style type="text/css">
   <![CDATA[
    .fil0 {fill:#D7CC75}
   ]]>
  </style>
 </defs>
 <g id="Layer_x0020_1">
  <metadata id="CorelCorpID_0Corel-Layer"/>
  <path class="fil0" d="M575 294c11,5 32,19 45,26 16,9 31,18 46,27l185 108c13,7 85,48 90,54 -28,18 -62,37 -92,54 -31,17 -60,34 -91,53 -30,18 -61,36 -92,54 -15,8 -83,50 -92,51l1 -427zm-575 245l0 45c0,15 2,22 2,34 0,25 0,46 2,69 3,33 10,98 16,129 16,83 42,132 123,163 59,23 156,27 223,28l395 10c49,0 92,-2 140,-2 14,0 20,-2 32,-2 12,0 26,1 37,0l136 -6c13,0 19,-2 33,-2 41,0 123,-12 156,-25 73,-27 110,-74 125,-160 30,-182 18,-266 16,-434l-4 -71c0,-64 -9,-136 -37,-193 -16,-33 -42,-60 -76,-77 -38,-19 -77,-24 -120,-29l-255 -12c-15,0 -22,-2 -37,-2l-224 -2c-52,0 -98,2 -150,2l-73 3c-20,2 -117,4 -145,7 -13,1 -25,-1 -38,1 -35,5 -56,3 -100,13 -31,7 -56,17 -80,34l-30 28c-35,45 -50,98 -55,156 -1,22 -4,48 -4,71 0,16 -2,22 -2,37 0,15 -2,24 -2,36 -1,51 -4,98 -4,151z"/>
 </g>
</svg>
